# xmcd
#
# Track frame offsets: 
#        150
#        12645
#        23705
#        39592
#        53725
#        65085
#        77862
#        90385
#        105872
#        119192
#
# Disc length: 1780 seconds
#
# Revision: 2
# Processed by: cddbd v1.4PL0 Copyright (c) Steve Scherf et al.
# Submitted via: ExactAudioCopy v0.90a11
#
DISCID=7e06f20a
DTITLE=Lorrie Morgan - Classics
DYEAR=1900
DGENRE=
TTITLE0=The First Few Days Of Love
TTITLE1=Say The Part About I Love You
TTITLE2=In For Rain
TTITLE3=Let It Be Yesterday
TTITLE4=Tell Me I'm Only Dreaming
TTITLE5=Ain't Got Time To Rock No Baby
TTITLE6=Who Do You Know In California
TTITLE7=Don't Go Changing
TTITLE8=Easy Love
TTITLE9=Someday We'll Be Together
EXTD=
EXTT0=
EXTT1=
EXTT2=
EXTT3=
EXTT4=
EXTT5=
EXTT6=
EXTT7=
EXTT8=
EXTT9=
PLAYORDER=
